<svg id="Capa_1" enable-background="new 0 0 504.767 504.767" height="512" viewBox="0 0 504.767 504.767" width="512" xmlns="http://www.w3.org/2000/svg"><g><path d="m497.135 254.271c-4.143 0-7.5 3.358-7.5 7.5v164.293c0 35.126-28.577 63.703-63.704 63.703-22.945 0-44.228-12.464-55.539-32.527-2.034-3.608-6.608-4.884-10.217-2.85-3.608 2.034-4.884 6.608-2.85 10.217 13.967 24.771 40.255 40.16 68.605 40.16 43.397 0 78.704-35.306 78.704-78.703v-164.293c.001-4.143-3.356-7.5-7.499-7.5z"/><path d="m497.135 116.269h-34.109c-4.143 0-7.5 3.358-7.5 7.5v302.294c0 16.318-13.276 29.594-29.595 29.594-8.231 0-16.164-3.486-21.764-9.565-2.806-3.046-7.551-3.242-10.598-.436s-3.241 7.551-.436 10.598c8.432 9.153 20.386 14.403 32.797 14.403 24.59 0 44.595-20.005 44.595-44.594v-294.794h19.109v105.5c0 4.142 3.357 7.5 7.5 7.5s7.5-3.358 7.5-7.5v-113c.001-4.142-3.356-7.5-7.499-7.5z"/><path d="m26.865 264.212c.317 5.521 1.172 11.018 2.54 16.336.87 3.386 3.917 5.634 7.259 5.634.618 0 1.246-.077 1.873-.238 4.012-1.032 6.427-5.12 5.396-9.131-1.126-4.38-1.83-8.91-2.093-13.463l-14.276-247.728c4.826.842 8.128 2.443 11.767 4.207 6.122 2.968 13.06 6.333 26.292 6.333s20.17-3.364 26.292-6.333c5.344-2.591 9.96-4.829 19.747-4.829 9.789 0 14.405 2.238 19.751 4.83 6.121 2.968 13.061 6.332 26.293 6.332 13.233 0 20.172-3.364 26.294-6.332 3.641-1.765 6.942-3.366 11.771-4.208l-13.006 225.693c-.238 4.135 2.921 7.681 7.056 7.919 4.13.233 7.681-2.921 7.919-7.056l13.498-234.246c.119-2.061-.616-4.079-2.033-5.58s-3.39-2.352-5.455-2.352c-13.233 0-20.172 3.364-26.294 6.332-5.346 2.591-9.962 4.83-19.751 4.83-9.788 0-14.404-2.238-19.749-4.83-6.122-2.968-13.061-6.332-26.294-6.332s-20.17 3.364-26.292 6.333c-5.344 2.591-9.96 4.829-19.747 4.829s-14.404-2.238-19.748-4.829c-6.122-2.969-13.059-6.333-26.292-6.333-2.064 0-4.037.851-5.454 2.352-1.416 1.501-2.152 3.52-2.033 5.58z"/><path d="m155.754 250.679c4.143 0 7.5-3.358 7.5-7.5v-42.02c0-28.447-23.144-51.59-51.591-51.59-28.446 0-51.59 23.143-51.59 51.59v42.02c0 4.142 3.357 7.5 7.5 7.5s7.5-3.358 7.5-7.5v-42.02c0-20.176 16.414-36.59 36.59-36.59s36.591 16.414 36.591 36.59v42.02c0 4.142 3.358 7.5 7.5 7.5z"/><path d="m90.951 131.081c.154 0 .311-.004.468-.014 4.134-.254 7.279-3.812 7.024-7.947l-4.465-72.55c-.254-4.134-3.795-7.29-7.946-7.025-4.134.254-7.279 3.812-7.024 7.947l4.465 72.55c.243 3.978 3.546 7.039 7.478 7.039z"/><path d="m132.383 131.081c3.932 0 7.234-3.062 7.479-7.04l4.464-72.551c.255-4.134-2.891-7.692-7.024-7.946-4.138-.25-7.692 2.891-7.946 7.025l-4.465 72.551c-.254 4.134 2.892 7.692 7.025 7.946.157.011.312.015.467.015z"/><path d="m341.39 195.409-2.581 44.794c-.238 4.135 2.921 7.681 7.056 7.919.147.008.293.012.438.012 3.944 0 7.251-3.08 7.48-7.068l2.581-44.794c.238-4.135-2.921-7.681-7.056-7.919-4.143-.233-7.681 2.92-7.918 7.056z"/><path d="m219.182 68.178c13.231 0 20.17-3.364 26.291-6.332 5.344-2.592 9.96-4.83 19.747-4.83 9.789 0 14.405 2.238 19.751 4.83 6.122 2.968 13.061 6.332 26.294 6.332s20.172-3.364 26.294-6.332c3.641-1.765 6.942-3.366 11.771-4.208l-3.095 53.704c-.238 4.135 2.921 7.681 7.056 7.919.147.008.293.012.438.012 3.944 0 7.251-3.081 7.48-7.068l3.588-62.257c.119-2.061-.616-4.079-2.033-5.58s-3.39-2.352-5.454-2.352c-13.233 0-20.172 3.364-26.294 6.332-5.346 2.591-9.962 4.83-19.751 4.83s-14.405-2.238-19.751-4.83c-6.122-2.968-13.061-6.332-26.294-6.332-13.232 0-20.171 3.364-26.292 6.333-5.344 2.591-9.959 4.829-19.746 4.829-4.143 0-7.5 3.358-7.5 7.5s3.358 7.5 7.5 7.5z"/><path d="m213.637 243.171c0 4.142 3.357 7.5 7.5 7.5s7.5-3.358 7.5-7.5c0-20.175 16.414-36.589 36.589-36.589s36.589 16.414 36.589 36.589c0 4.142 3.357 7.5 7.5 7.5s7.5-3.358 7.5-7.5c0-28.446-23.143-51.589-51.589-51.589s-51.589 23.143-51.589 51.589z"/><path d="m244.51 173.098c.154 0 .311-.004.468-.014 4.134-.254 7.279-3.812 7.024-7.947l-4.465-72.55c-.254-4.134-3.796-7.283-7.946-7.025-4.134.254-7.279 3.812-7.024 7.947l4.465 72.55c.244 3.977 3.547 7.039 7.478 7.039z"/><path d="m285.942 173.098c3.932 0 7.234-3.062 7.479-7.04l4.465-72.55c.255-4.135-2.891-7.692-7.024-7.947-4.143-.254-7.692 2.891-7.946 7.025l-4.465 72.55c-.255 4.135 2.891 7.692 7.024 7.947.156.01.312.015.467.015z"/><path d="m402.907 423.098c11.111-12.911 17.624-28.903 18.855-45.568 11.089-3.169 19.233-13.389 19.233-25.481v-14.932c0-14.614-11.89-26.504-26.504-26.504h-2.195c-4.533-13.039-12.436-24.756-23.022-33.867-14.291-12.299-32.545-19.072-51.399-19.072h-233.635c-18.854 0-37.109 6.773-51.4 19.072-10.586 9.111-18.489 20.828-23.021 33.867h-3.184c-14.614 0-26.503 11.89-26.503 26.504v14.932c0 12.457 8.64 22.928 20.241 25.75 1.281 16.569 7.782 32.458 18.834 45.3 14.984 17.411 36.753 27.397 59.725 27.397h64.75l34.518 34.517c6.104 6.109 14.221 9.474 22.857 9.474s16.754-3.364 22.854-9.471l34.528-34.52h64.743c22.972-.001 44.74-9.987 59.725-27.398zm23.088-85.982v14.932c0 3.801-1.861 7.167-4.71 9.263-.06-.451-.117-.902-.185-1.353l-5.159-34.244c5.659.716 10.054 5.551 10.054 11.402zm-410.864 14.932v-14.932c0-6.192 4.921-11.243 11.055-11.481l-5.172 34.323c-.098.651-.186 1.303-.268 1.955-3.356-2.012-5.615-5.675-5.615-9.865zm35.446 61.265c-12.133-14.097-17.501-32.729-14.73-51.12l5.309-35.229c2.274-15.095 9.899-28.892 21.47-38.85 11.57-9.958 26.35-15.441 41.615-15.441h233.635c15.266 0 30.044 5.484 41.615 15.441 11.57 9.958 19.195 23.755 21.47 38.85l5.308 35.229c2.771 18.391-2.598 37.023-14.73 51.12s-29.756 22.182-48.354 22.182h-64.938c-14.662 0-27.432-9.409-31.776-23.413l-6.518-21.015c-2.583-8.326-10.176-13.92-18.894-13.92-8.719 0-16.312 5.595-18.894 13.921l-6.519 21.014c-4.344 14.004-17.113 23.413-31.775 23.413h-64.94c-18.598 0-36.223-8.085-48.354-22.182zm182.725 61.097c-3.27 3.273-7.619 5.075-12.246 5.075s-8.977-1.802-12.248-5.078l-27.24-27.24c13.351-5.223 23.942-16.258 28.404-30.641l6.519-21.015c.624-2.012 2.46-3.364 4.567-3.364s3.942 1.353 4.567 3.365l6.518 21.014c4.462 14.385 15.055 25.42 28.408 30.643z"/><path d="m182.901 389.22 13.608-46.494c3.563-12.177 1.244-24.985-6.363-35.139-7.608-10.154-19.249-15.978-31.938-15.978h-9.574c-4.143 0-7.5 3.358-7.5 7.5s3.357 7.5 7.5 7.5h9.574c7.919 0 15.185 3.635 19.933 9.972 4.749 6.337 6.196 14.331 3.972 21.931l-13.608 46.494c-3.087 10.545-12.916 17.911-23.904 17.911h-47.833c-13.734 0-24.907-11.173-24.907-24.907v-37.315c0-18.795 15.291-34.086 34.086-34.086h19.688c4.143 0 7.5-3.358 7.5-7.5s-3.357-7.5-7.5-7.5h-19.688c-27.066 0-49.086 22.02-49.086 49.086v37.315c0 22.005 17.902 39.907 39.907 39.907h47.832c17.606 0 33.355-11.801 38.301-28.697z"/><path d="m259.212 389.22c4.946 16.896 20.695 28.697 38.301 28.697h47.833c22.004 0 39.906-17.902 39.906-39.907v-37.315c0-27.066-22.02-49.086-49.086-49.086h-52.262c-12.688 0-24.328 5.824-31.937 15.978-7.607 10.154-9.927 22.961-6.363 35.139zm4.761-72.639c4.748-6.337 12.013-9.972 19.932-9.972h52.262c18.795 0 34.086 15.291 34.086 34.086v37.315c0 13.733-11.173 24.907-24.906 24.907h-47.833c-10.988 0-20.817-7.365-23.904-17.91l-13.607-46.495c-2.226-7.6-.779-15.594 3.97-21.931z"/><path d="m387.134 155.269c0-16.266-13.233-29.5-29.5-29.5s-29.5 13.234-29.5 29.5 13.233 29.5 29.5 29.5 29.5-13.234 29.5-29.5zm-44 0c0-7.995 6.505-14.5 14.5-14.5s14.5 6.505 14.5 14.5-6.505 14.5-14.5 14.5-14.5-6.505-14.5-14.5z"/><path d="m406.884 133.769c16.404 0 29.75-13.346 29.75-29.75s-13.346-29.75-29.75-29.75-29.75 13.346-29.75 29.75 13.346 29.75 29.75 29.75zm0-44.5c8.133 0 14.75 6.617 14.75 14.75s-6.617 14.75-14.75 14.75-14.75-6.617-14.75-14.75 6.617-14.75 14.75-14.75z"/></g></svg>