<svg height="406pt" viewBox="0 -11 406.64064 406" width="406pt" xmlns="http://www.w3.org/2000/svg"><path d="m384.226562.320312c-12.359374 0-22.414062 10.058594-22.414062 22.417969s10.054688 22.417969 22.414062 22.417969c12.359376 0 22.414063-10.058594 22.414063-22.417969s-10.054687-22.417969-22.414063-22.417969zm0 31.179688c-4.832031 0-8.761718-3.929688-8.761718-8.761719 0-4.835937 3.929687-8.765625 8.761718-8.765625 4.832032 0 8.761719 3.929688 8.761719 8.765625 0 4.832031-3.929687 8.761719-8.761719 8.761719zm0 0"/><path d="m22.414062 307.519531c-12.359374 0-22.414062 10.058594-22.414062 22.417969s10.054688 22.417969 22.414062 22.417969c12.359376 0 22.414063-10.058594 22.414063-22.417969s-10.054687-22.417969-22.414063-22.417969zm0 31.179688c-4.832031 0-8.761718-3.929688-8.761718-8.761719s3.929687-8.765625 8.761718-8.765625c4.832032 0 8.761719 3.933594 8.761719 8.765625s-3.929687 8.761719-8.761719 8.761719zm0 0"/><path d="m367.480469 234.363281c0 5.832031-4.726563 10.558594-10.558594 10.558594s-10.5625-4.726563-10.5625-10.558594 4.730469-10.558593 10.5625-10.558593 10.558594 4.726562 10.558594 10.558593zm0 0"/><path d="m26.144531 104.65625c0 5.832031-4.726562 10.558594-10.558593 10.558594-5.832032 0-10.558594-4.726563-10.558594-10.558594s4.726562-10.558594 10.558594-10.558594c5.832031 0 10.558593 4.726563 10.558593 10.558594zm0 0"/><path d="m80.757812 248.015625c0 5.832031-4.726562 10.5625-10.558593 10.5625s-10.558594-4.730469-10.558594-10.5625c0-5.828125 4.726563-10.558594 10.558594-10.558594s10.558593 4.730469 10.558593 10.558594zm0 0"/><path d="m59.785156 33.390625-7.238281-7.238281 7.238281-7.242188c2.667969-2.664062 2.667969-6.984375 0-9.652344-2.664062-2.664062-6.984375-2.664062-9.652344 0l-7.238281 7.238282-7.242187-7.238282c-2.664063-2.664062-6.984375-2.664062-9.652344 0-2.664062 2.667969-2.664062 6.988282 0 9.652344l7.242188 7.242188-7.242188 7.238281c-2.664062 2.664063-2.664062 6.988281 0 9.652344 1.332031 1.332031 3.082031 2 4.828125 2s3.492187-.667969 4.824219-2l7.242187-7.238281 7.238281 7.238281c1.332032 1.332031 3.082032 2 4.828126 2 1.746093 0 3.492187-.667969 4.824218-2 2.667969-2.664063 2.667969-6.984375 0-9.652344zm0 0"/><path d="m394.292969 343.765625c-2.664063-2.667969-6.988281-2.667969-9.652344 0l-7.242187 7.238281-7.238282-7.238281c-2.664062-2.667969-6.988281-2.667969-9.652344 0-2.664062 2.664063-2.664062 6.984375 0 9.652344l7.238282 7.238281-7.238282 7.242188c-2.664062 2.664062-2.664062 6.984374 0 9.652343 1.332032 1.332031 3.082032 2 4.828126 2 1.746093 0 3.492187-.667969 4.824218-2l7.238282-7.242187 7.242187 7.242187c1.332031 1.332031 3.078125 2 4.824219 2s3.496094-.667969 4.828125-2c2.664062-2.667969 2.664062-6.988281 0-9.652343l-7.238281-7.242188 7.238281-7.238281c2.667969-2.667969 2.667969-6.988281 0-9.652344zm0 0"/><path d="m377.066406 294.261719c-.640625-1.976563-2.144531-3.550781-4.085937-4.285157l-67.800781-25.507812c2.550781-6.832031 3.941406-14.195312 3.949218-21.84375 16.695313-14.074219 29.878906-32.136719 38.15625-52.703125 4.359375 6.214844 11.550782 10.308594 19.699219 10.308594 13.273437 0 24.066406-10.796875 24.066406-24.074219v-54.257812c0-13.273438-10.792969-24.070313-24.066406-24.070313-5.773437 0-11.007813 2.125-15.160156 5.527344-15.992188-56.289063-67.75-97.6875-129.101563-97.6875-60.910156 0-112.402344 40.800781-128.78125 96.488281-3.90625-2.699219-8.589844-4.328125-13.679687-4.328125-13.273438 0-24.070313 10.796875-24.070313 24.070313v54.257812c0 13.273438 10.796875 24.074219 24.070313 24.074219 7.453125 0 14.039062-3.476563 18.457031-8.808594 8.6875 20.859375 22.5 39.046875 39.84375 53.042969.21875 6.039062 1.28125 11.890625 3.09375 17.429687l-67.730469 30.257813c-1.835937.820312-3.226562 2.421875-3.777343 4.367187-.554688 1.945313-.214844 4.027344.917968 5.703125 34.574219 50.90625 91.359375 81.300782 151.902344 81.300782 61.53125 0 118.839844-31.175782 153.296875-83.394532 1.148437-1.734375 1.441406-3.894531.800781-5.867187zm-20.5-172.359375c0-5.742188 4.671875-10.417969 10.417969-10.417969 5.742187 0 10.414063 4.671875 10.414063 10.417969v54.257812c0 5.746094-4.671876 10.417969-10.414063 10.417969-5.746094 0-10.417969-4.671875-10.417969-10.417969v-19.617187c0-.671875-.199218-1.28125-.382812-1.898438.527344-4.824219.84375-9.710937.84375-14.675781 0-5.257812-.382813-10.421875-.972656-15.527344.316406-.789062.511718-1.640625.511718-2.539062zm-265.886718 44.195312v10.0625c0 5.742188-4.671876 10.417969-10.414063 10.417969-5.746094 0-10.417969-4.671875-10.417969-10.417969v-54.261718c0-5.742188 4.671875-10.417969 10.417969-10.417969 4.785156 0 8.734375 3.242187 9.933594 7.757812-1.054688 6.773438-1.765625 13.660157-1.765625 20.726563 0 8.601562.890625 16.988281 2.445312 25.148437-.050781.335938-.199218.636719-.199218.984375zm11.40625-26.128906c0-6.371094.644531-12.582031 1.601562-18.691406.199219-.597656.257812-1.21875.285156-1.867188 9.800782-56.746094 59.253906-100.085937 118.753906-100.085937 66.527344 0 120.644532 54.121093 120.644532 120.644531s-54.117188 120.640625-120.644532 120.640625c-66.519531 0-120.640624-54.117187-120.640624-120.640625zm120.640624 134.296875c26.285157 0 50.753907-7.703125 71.484376-20.808594-4.3125 18.929688-19.574219 34.011719-39.492188 37.609375-21.011719 3.78125-42.671875 3.457032-64.386719-.972656-17.855469-3.644531-31.601562-17.53125-36.316406-34.949219 20.132813 12.054688 43.585937 19.121094 68.710937 19.121094zm.246094 95.605469c-53.324218 0-103.519531-25.515625-135.84375-68.652344l60.15625-26.878906c8.652344 14.675781 23.027344 25.601562 40.316406 29.128906 12.621094 2.578125 25.234376 3.867188 37.734376 3.867188 10.703124 0 21.332031-.945313 31.8125-2.839844 17.742187-3.199219 32.570312-13.585938 41.804687-27.78125l61.015625 22.957031c-32.296875 44.113281-82.886719 70.199219-136.996094 70.199219zm0 0"/><path d="m309.132812 151.503906v-17.863281c0-23.511719-19.125-42.636719-42.636718-42.636719h-85.386719c-23.515625 0-42.640625 19.125-42.640625 42.636719v17.863281c0 23.507813 19.125 42.636719 42.640625 42.636719h85.386719c23.511718 0 42.636718-19.125 42.636718-42.636719zm-157.011718 0v-17.863281c0-15.980469 13.003906-28.984375 28.984375-28.984375h85.386719c15.980468 0 28.988281 13.003906 28.988281 28.984375v17.863281c0 15.980469-13.007813 28.980469-28.988281 28.980469h-85.386719c-15.980469.003906-28.984375-13-28.984375-28.980469zm0 0"/><path d="m214.972656 130.550781c-2.664062-2.664062-6.984375-2.664062-9.652344 0l-23.894531 23.894531c-2.664062 2.664063-2.664062 6.984376 0 9.652344 1.335938 1.332032 3.082031 2 4.828125 2s3.492188-.667968 4.828125-2l23.890625-23.894531c2.667969-2.664063 2.667969-6.984375 0-9.652344zm0 0"/><path d="m266.171875 113.484375c-2.664063-2.664063-6.984375-2.664063-9.652344 0l-47.785156 47.785156c-2.667969 2.667969-2.667969 6.988281 0 9.65625 1.332031 1.332031 3.078125 2 4.824219 2s3.496094-.667969 4.828125-2l47.785156-47.789062c2.667969-2.664063 2.667969-6.984375 0-9.652344zm0 0"/><path d="m231.476562 347.003906c0 4.238282-3.4375 7.675782-7.675781 7.675782s-7.675781-3.4375-7.675781-7.675782c0-4.238281 3.4375-7.675781 7.675781-7.675781s7.675781 3.4375 7.675781 7.675781zm0 0"/><path d="m286.089844 333.351562c0 4.238282-3.4375 7.675782-7.675782 7.675782-4.238281 0-7.675781-3.4375-7.675781-7.675782 0-4.238281 3.4375-7.675781 7.675781-7.675781 4.238282 0 7.675782 3.4375 7.675782 7.675781zm0 0"/><path d="m327.046875 306.042969c0 4.238281-3.433594 7.675781-7.671875 7.675781s-7.675781-3.4375-7.675781-7.675781 3.4375-7.671875 7.675781-7.671875 7.671875 3.433594 7.671875 7.671875zm0 0"/><path d="m129.074219 306.042969c0 4.238281-3.433594 7.675781-7.675781 7.675781-4.238282 0-7.671876-3.4375-7.671876-7.675781s3.433594-7.671875 7.671876-7.671875c4.242187 0 7.675781 3.433594 7.675781 7.671875zm0 0"/><path d="m176.863281 333.351562c0 4.238282-3.4375 7.675782-7.675781 7.675782s-7.675781-3.4375-7.675781-7.675782c0-4.238281 3.4375-7.675781 7.675781-7.675781s7.675781 3.4375 7.675781 7.675781zm0 0"/></svg>