<svg xmlns="http://www.w3.org/2000/svg" width="20.77" height="27.693" viewBox="0 0 20.77 27.693"><defs><style>.a{fill:#fff;}</style></defs><g transform="translate(-3)"><path class="a" d="M13.385,27.693A.58.58,0,0,1,13,27.549c-.408-.361-10-8.921-10-17.164a10.385,10.385,0,1,1,20.77,0c0,8.243-9.595,16.8-10,17.164A.58.58,0,0,1,13.385,27.693Zm0-26.539a9.242,9.242,0,0,0-9.231,9.231c0,6.829,7.444,14.26,9.231,15.946,1.787-1.686,9.231-9.117,9.231-15.946A9.242,9.242,0,0,0,13.385,1.154Z"/><path class="a" d="M12.769,15.539a5.769,5.769,0,1,1,5.769-5.769A5.776,5.776,0,0,1,12.769,15.539Zm0-10.385a4.616,4.616,0,1,0,4.616,4.616A4.62,4.62,0,0,0,12.769,5.154Z" transform="translate(0.616 0.616)"/></g></svg>