<svg xmlns="http://www.w3.org/2000/svg" width="38.121" height="25.414" viewBox="0 0 38.121 25.414"><defs><style>.a{fill:#fff;}</style></defs><g transform="translate(104 -95.333)"><g transform="translate(-104 95.333)"><path class="a" d="M36.166,85.333H1.955A1.961,1.961,0,0,0,0,87.288v21.5a1.961,1.961,0,0,0,1.955,1.955H36.166a1.961,1.961,0,0,0,1.955-1.955v-21.5A1.961,1.961,0,0,0,36.166,85.333ZM35.432,86.8,20.185,98.236a2.044,2.044,0,0,1-2.249,0L2.688,86.8ZM27.288,98.99,35.6,109.254c.008.01.019.018.027.027H2.5c.009-.01.019-.017.027-.027L10.833,98.99a.733.733,0,0,0-1.14-.923L1.466,108.231V87.715l15.59,11.693a3.5,3.5,0,0,0,4.007,0l15.59-11.693V108.23L28.427,98.067a.733.733,0,0,0-1.14.923Z" transform="translate(0 -85.333)"/></g></g></svg>