<svg xmlns="http://www.w3.org/2000/svg" width="116.433" height="99.222" viewBox="0 0 116.433 99.222"><g transform="translate(-167.299 -320.977)"><path d="M239.055,461.634c.9,3.831,1.69,7.435,2.655,10.992a2.035,2.035,0,0,0,1.757.911,26.377,26.377,0,0,0,4.283-1.457A31.046,31.046,0,0,1,270.97,472c3.274,1.221,6.847,1.664,10.307,2.347,1.293.256,2.491.513,2.454,2.08-.037,1.608-1.289,2.033-2.576,1.815-3.476-.588-7.129-.824-10.346-2.113a28.778,28.778,0,0,0-22.692,0,28.509,28.509,0,0,1-22.532.027,28.455,28.455,0,0,0-22.886.067c-7.284,3.034-14.688,2.726-22.144.091-3.515-1.242-7.311-1.669-10.926-2.659-.884-.243-1.559-1.249-2.33-1.9.781-.643,1.636-1.9,2.332-1.823,3.424.4,7.033.609,10.157,1.9,7.948,3.284,15.677,3.442,23.54.014a32.11,32.11,0,0,1,4.533-1.437,3.686,3.686,0,0,0,2.821-3.886,1.4,1.4,0,0,0-.822-.887c-4.026-1.266-8.015-2.715-12.121-3.644a27.671,27.671,0,0,0-15.835,1.1,91.467,91.467,0,0,1-10.249,2.732,4.917,4.917,0,0,1-2.889-.126,2.7,2.7,0,0,1-1.361-1.974,2.194,2.194,0,0,1,1.521-1.546c5.184-.135,9.822-2.248,14.663-3.693a29.273,29.273,0,0,1,19.337.97,70.355,70.355,0,0,0,7.132,2.167,2.1,2.1,0,0,0,2.819-1.517c1.244-3.519,3.968-5.013,7.546-5.078,3.4-.061,6.825-.2,10.21.065,1.8.141,3.525,1.092,5.3,1.636,1,.305,2.01.555,3.027.778,2.935.643,6.049.84,8.782,1.967a29.33,29.33,0,0,0,23.342-.018c3.134-1.28,6.731-1.515,10.152-1.936a3,3,0,0,1,2.41,1.624c.425,1.5-.93,2.191-2.212,2.163-4.608-.1-8.673,1.747-12.9,3.188a29.367,29.367,0,0,1-19.579-.382c-2.91-1.011-5.908-1.771-8.875-2.616A3.09,3.09,0,0,0,239.055,461.634Zm-25.3,8.188c5.864-.271,10.494,1.8,15.285,3.378,2.695.888,5.648.988,8.486,1.443l.686-.812c-1.342-4.36-2.609-8.747-4.1-13.055a3.018,3.018,0,0,0-2.269-1.518c-4.144-.164-8.3-.159-12.447-.052a2.906,2.906,0,0,0-2.231,1.224C215.929,463.365,214.959,466.409,213.751,469.822Z" transform="translate(0 -73.113)"/><path d="M263.038,381.009h16.246c.814-1.066,1.595-2.7,2.1-2.621a5.954,5.954,0,0,1,2.864,1.993c.536.565.621,1.532,1.044,2.238a8.241,8.241,0,0,0,1.267,1.345c.263-.555.743-1.106.754-1.666.073-3.63.044-7.262.048-10.894,0-.757-.012-1.514.012-2.27.044-1.421.213-3,1.986-3.032,1.957-.031,2.052,1.662,2.094,3.139.045,1.588.041,3.177.042,4.766,0,6.885.019,13.769-.005,20.654-.018,5.21-2.446,7.533-7.649,7.765a9.183,9.183,0,0,0-4.357,1.343,14.5,14.5,0,0,1-21.059-5.8,4.509,4.509,0,0,0-2.955-2.756,5.513,5.513,0,0,1-3.957-5.266,5.71,5.71,0,0,1,3.89-5.572,3.536,3.536,0,0,0,2.537-2.475,14.467,14.467,0,0,1,18.474-8.324c1.318.5,2.775,1.063,2.159,2.833s-2.065,1.3-3.437.865C270.252,375.728,265.925,377.067,263.038,381.009Zm8.638,3.812c-2.038,0-4.08-.07-6.115.018A4.572,4.572,0,0,0,261.221,389c-.186,2.134,1.213,4.471,3.45,4.616a106.483,106.483,0,0,0,13.731.052c2.527-.164,3.76-2.411,3.472-4.97a4.326,4.326,0,0,0-4.31-3.859C275.6,384.755,273.639,384.819,271.675,384.82Zm-8.912,12.9a11,11,0,0,0,9.147,4.538c-1.614-2.455-.928-3.861,1.917-3.985,1.886-.083,3.779-.016,5.669-.016l-.015-.537Zm24.851-1.389-1.047-1.021-2.063,2.323.828.828Zm-30.457-8.25c-2.04,1.527-1.934,2.436.2,3.474Z" transform="translate(-45.963 -24.63)"/><path d="M305.42,529.06a26.673,26.673,0,0,1-11.076-2.181c-7.718-3.041-15.236-3.256-22.888.079A26.681,26.681,0,0,1,262,529.111a32.748,32.748,0,0,1-4.948-.165c-1.69-.18-3.67-.266-4.833-1.7-1.682-2.072,1.347-2.627,2.8-2.627,1.739,0,3.472.625,5.21.459a36.044,36.044,0,0,0,9.7-1.852c8.673-3.409,17.128-3.611,25.77.043,6.646,2.81,13.339,2.328,20.109-.113,3.567-1.285,7.427-1.789,11.182-2.5,1.307-.249,2.758.017,2.815,1.786.055,1.7-1.291,1.865-2.646,2.125-5.758,1.105-11.4,2.725-17.14,3.919A27.176,27.176,0,0,1,305.42,529.06Z" transform="translate(-46.079 -108.943)"/><path d="M222.484,354.208a8.43,8.43,0,1,1-8.39-8.411A8.626,8.626,0,0,1,222.484,354.208Zm-8.417,4.378a4.371,4.371,0,0,0,4.492-4.168,4.84,4.84,0,0,0-4.352-4.7,4.416,4.416,0,0,0-4.506,4.408A4.229,4.229,0,0,0,214.067,358.586Z" transform="translate(-20.918 -13.547)"/><path d="M200.759,525.5c-3.238-.379-5.77-.767-8.317-.951-3.995-.289-7.72.8-11.486,2.1a74.464,74.464,0,0,1-10.524,2.386c-1.367.256-2.959.023-3.035-1.833-.076-1.874,1.476-1.807,2.867-2.083a64.06,64.06,0,0,0,10.042-2.457,32.674,32.674,0,0,1,18.7-1.284,4.07,4.07,0,0,1,2.082.78,3.1,3.1,0,0,1,.822,2.28C201.806,525.016,200.834,525.441,200.759,525.5Z" transform="translate(-0.052 -108.947)"/><path d="M252.4,364.15a8.874,8.874,0,0,1-2.7-.312c-.7-.314-1.615-1.133-1.628-1.746a2.41,2.41,0,0,1,1.487-1.847,23.5,23.5,0,0,1,5.811.01,2.411,2.411,0,0,1,1.5,1.84c-.011.621-.908,1.483-1.608,1.769A9.7,9.7,0,0,1,252.4,364.15Z" transform="translate(-44.087 -21.337)"/><path d="M185.078,363.974a7.315,7.315,0,0,1-2.454-.254,9.186,9.186,0,0,1-1.993-1.788c.675-.688,1.272-1.838,2.042-1.97a15.288,15.288,0,0,1,5.149.057,2.633,2.633,0,0,1,1.743,1.869c0,.627-1.052,1.468-1.822,1.814A8.327,8.327,0,0,1,185.078,363.974Z" transform="translate(-7.277 -21.174)"/><path d="M199.7,338.457c-.211.265-.519,1.019-1.031,1.2a2.448,2.448,0,0,1-2.047-.174,28.815,28.815,0,0,1-3.959-3.992A1.8,1.8,0,0,1,194,332.514C195.4,332.416,199.738,336.649,199.7,338.457Z" transform="translate(-13.602 -6.296)"/><path d="M223.827,325.368a8.309,8.309,0,0,1-.271,2.883,3.086,3.086,0,0,1-2.048,1.567c-.457.055-1.407-1.062-1.534-1.762a13.826,13.826,0,0,1-.144-4.7,3.294,3.294,0,0,1,1.809-2.331c1.448-.309,2,.992,2.1,2.312.052.673.009,1.353.009,2.03Z" transform="translate(-28.595)"/><path d="M248,385.509c-.76.928-1.081,1.689-1.59,1.846a2.538,2.538,0,0,1-2.061-.268,22.347,22.347,0,0,1-3.791-3.823,2.686,2.686,0,0,1,.163-2.516,2.351,2.351,0,0,1,2.313-.107C244.765,382.084,246.282,383.787,248,385.509Z" transform="translate(-39.852 -32.428)"/><path d="M241.577,340.1c-1.3.028-2.543-1.539-1.8-2.484a35.574,35.574,0,0,1,4.908-4.862c.3-.259,1.5.133,1.951.568a1.877,1.877,0,0,1,.256,1.809c-1.482,1.682-3.128,3.22-4.736,4.788C242.018,340.054,241.737,340.05,241.577,340.1Z" transform="translate(-39.439 -6.38)"/><path d="M223.957,392.809a7.637,7.637,0,0,1-.29,2.637,2.657,2.657,0,0,1-1.92,1.453,2.475,2.475,0,0,1-1.622-1.735,18.373,18.373,0,0,1-.006-5.191c.11-.738,1.114-1.342,1.712-2.007.658.622,1.555,1.134,1.907,1.9A9.032,9.032,0,0,1,223.957,392.809Z" transform="translate(-28.73 -36.564)"/><path d="M194.2,387.534a1.773,1.773,0,0,1-1.616-2.848,28.029,28.029,0,0,1,4.309-4.251,2.337,2.337,0,0,1,2.16.282,2.043,2.043,0,0,1,.426,1.94c-1.462,1.685-3.118,3.2-4.727,4.759C194.613,387.544,194.319,387.51,194.2,387.534Z" transform="translate(-13.58 -32.363)"/><path d="M279.475,478.362a1.85,1.85,0,0,1,.007,3.322.843.843,0,0,1-.432.086,1.755,1.755,0,0,1-.044-3.508A.886.886,0,0,1,279.475,478.362Z" transform="translate(-60.05 -85.846)"/><path d="M308.5,478.407a1.856,1.856,0,0,1,0,3.183.959.959,0,0,1-.58.16c-.679-.079-1.741-1.125-1.727-1.728a2.51,2.51,0,0,1,1.716-1.778A.95.95,0,0,1,308.5,478.407Z" transform="translate(-75.812 -85.836)"/><path d="M287.144,414.988c0,1.7-.052,3.2-1.973,3.136-1.842-.066-1.914-1.566-1.935-2.972-.021-1.475.3-2.91,2.054-2.878C287.132,412.307,287.17,413.863,287.144,414.988Z" transform="translate(-63.28 -49.831)"/><path d="M298.133,415.776c.441-1.846.428-3.43,2.27-3.508,1.748-.074,2.142,1.327,2.122,2.831s-.155,3.192-2.11,2.959C299.575,417.958,298.889,416.576,298.133,415.776Z" transform="translate(-71.411 -49.827)"/></g></svg>