<svg xmlns="http://www.w3.org/2000/svg" width="25.377" height="25.414" viewBox="0 0 25.377 25.414"><defs><style>.a{fill:#fff;}</style></defs><g transform="translate(-132.344 0)"><g transform="translate(132.344 0)"><path class="a" d="M20.411,41.679a2.5,2.5,0,0,0-1.813-.831,2.585,2.585,0,0,0-1.834.826l-1.695,1.69c-.139-.075-.279-.145-.413-.215-.193-.1-.375-.188-.531-.284A18.422,18.422,0,0,1,9.71,38.842a10.868,10.868,0,0,1-1.448-2.285c.44-.4.847-.821,1.244-1.223.15-.15.3-.306.451-.456a2.461,2.461,0,0,0,0-3.712L8.493,29.7c-.166-.166-.338-.338-.5-.51-.322-.333-.66-.676-1.008-1a2.539,2.539,0,0,0-1.8-.788,2.627,2.627,0,0,0-1.824.788l-.011.011L1.53,30.045A3.924,3.924,0,0,0,.367,32.539a9.4,9.4,0,0,0,.687,3.98,23.1,23.1,0,0,0,4.1,6.844,25.242,25.242,0,0,0,8.405,6.581,13.1,13.1,0,0,0,4.72,1.395c.113.005.231.011.338.011a4.042,4.042,0,0,0,3.095-1.33c.005-.011.016-.016.021-.027a12.194,12.194,0,0,1,.939-.971c.231-.22.467-.451.7-.692a2.676,2.676,0,0,0,.81-1.856,2.578,2.578,0,0,0-.826-1.84Zm1.92,5.648c-.005,0-.005.005,0,0-.209.225-.424.429-.654.654a14.1,14.1,0,0,0-1.035,1.073,2.586,2.586,0,0,1-2.017.853c-.08,0-.166,0-.247-.005a11.633,11.633,0,0,1-4.184-1.255,23.826,23.826,0,0,1-7.917-6.2,21.776,21.776,0,0,1-3.862-6.431,7.659,7.659,0,0,1-.6-3.358,2.462,2.462,0,0,1,.74-1.593l1.829-1.829a1.219,1.219,0,0,1,.815-.381,1.147,1.147,0,0,1,.783.375L6,29.246c.327.306.638.622.965.96.166.172.338.343.51.52l1.464,1.464a1.024,1.024,0,0,1,0,1.663c-.156.156-.306.311-.461.461-.451.461-.88.89-1.346,1.309-.011.011-.021.016-.027.027a1.094,1.094,0,0,0-.279,1.218l.016.048a11.756,11.756,0,0,0,1.733,2.827l.005.005a19.687,19.687,0,0,0,4.763,4.334,7.322,7.322,0,0,0,.66.359c.193.1.375.188.531.284.021.011.043.027.064.038a1.163,1.163,0,0,0,.531.134,1.147,1.147,0,0,0,.815-.37l1.834-1.834a1.213,1.213,0,0,1,.81-.4,1.092,1.092,0,0,1,.772.392l.011.011,2.955,2.955A1.061,1.061,0,0,1,22.331,47.327Z" transform="translate(-0.344 -25.936)"/><path class="a" d="M245.54,87.362a6.9,6.9,0,0,1,5.621,5.621.72.72,0,0,0,.713.6.958.958,0,0,0,.123-.011.725.725,0,0,0,.6-.837,8.347,8.347,0,0,0-6.8-6.8.728.728,0,0,0-.837.59A.716.716,0,0,0,245.54,87.362Z" transform="translate(-231.824 -81.316)"/><path class="a" d="M260.816,11.211a13.745,13.745,0,0,0-11.2-11.2.723.723,0,1,0-.236,1.427,12.277,12.277,0,0,1,10.009,10.009.72.72,0,0,0,.713.6.958.958,0,0,0,.123-.011A.711.711,0,0,0,260.816,11.211Z" transform="translate(-235.45 0)"/></g></g></svg>