<svg height="512" viewBox="0 0 512 512" width="512" xmlns="http://www.w3.org/2000/svg"><g><path d="m400 408v-16c30.487-.788 33.092 5.866 32-23.659 48.893-5.3 52.158-67.4 16.959-93.775 27.47-28.817 18.189-72.756-17.03-85.361-.009-.186-.027-.37-.038-.556 2.707-57.083-41.993-105.638-98.376-108.5-61.5-3.334-112.2 47.659-109.406 108.505-.011.186-.029.37-.038.556a45.056 45.056 0 0 0 -8.071 3.59v-.8c-23.615-.611-40.112-.909-51.445 18.5-3.761-11.715-20.554-13.826-30.227-11.643-20.783-10.626-19.347-71.274-41.826-36.516a14.917 14.917 0 0 1 -9.963 5.508c-8.628 3.48-11.347-25.3-24.759-12.881-2.6 3.082-6.829 10.648-10.151 13.031-11.135-.042-15.086-1.95-16.125-2.615-2.5-6.262-12.808-7.419-15.329.016-1.448 8.394 2.619 11.832 6.527 18.109 10.59 16.326 59.038 43.157 68.437 47.031 10.036 10.765 18.976 14.1 30.273 16.372a73.37 73.37 0 0 1 .011 12.069c-29.2-16.22-55.714 26.783-73.469 45.217-9.868 14.029-39.964 39.63-30.287 46.467 3.345 3.708 7.446 2.675 11.286 1.447 12.638-2.748 13.731 7.313 17.153 14.859 6.2 7.455 12.7-2.787 20.6 4.235 3.543 2.37 3.21 5.865 6.461 8.828 3.782 3.211 9.694 1.913 12.141-2.648 2.226-7.038.263-3.081 1.846-7.944 1.928-6.686 7.69-21.242 25.776-55.5a158.7 158.7 0 0 0 72.589 22.616c5.083 17.014 20.358 31.334 38.477 31.785-2.713 32.988 9.19 21.7 32 23.659v16a8 8 0 0 0 8 8h128.004a8 8 0 0 0 8-8.002zm-72-16c-54.195-2.823-51.939-78.226 0-80 54.2 2.823 51.939 78.226 0 80zm-47.042-104a84.21 84.21 0 0 0 12.143-6.031c21.3 7.9 48.186 8.022 69.8 0a84.21 84.21 0 0 0 12.141 6.031zm-102.439-27q-.7-1.156-1.422-2.381 1.47.911 3.03 1.68-.811.365-1.608.701zm204.917 10.98c6.884.486 19.524 1.379 31.213 4a56.245 56.245 0 0 1 -33.347-2.709q1.058-.633 2.1-1.292zm-18.674-8.037q-2.564-1.933-5-4.108a32.765 32.765 0 0 0 -4.114-19.916c7.542 8.395 23.079 9.7 34.581 6.244a88.379 88.379 0 0 1 -25.467 17.78zm-52.762-7.943c1.248-21.99 31.475-20.314 32 0-1.248 21.99-31.475 20.314-32 0zm-4.849-24.245c18.178-33.407 24.6-30.666 41.7 0-10.701-9.993-30.651-10.292-41.7 0zm105.557-23.883a40.343 40.343 0 0 1 -30.951 23.715c-28.227 5.429-21.885-41.084-54.968-39.562-30.544 1.436-26.108 43.548-50.27 39.825-15.212-1.3-27.284-10.758-33.227-23.978a87.521 87.521 0 0 1 -3.156-19.022c8.714-45.514 40.243-35.8 88.646-36.85 48.841.758 78.363-7.76 87.082 36.85a87.581 87.581 0 0 1 -3.156 19.022zm-132.708 40.128a28.611 28.611 0 0 0 20.352-8.081 32.282 32.282 0 0 0 -4.114 19.916q-2.43 2.18-5 4.108a88.379 88.379 0 0 1 -25.467-17.78 55.886 55.886 0 0 0 14.229 1.837zm-60.883 16h6.17q-2.219.817-4.306 1.752-.96-.852-1.864-1.752zm53.446 7.98h.036q1.041.659 2.1 1.292a56.485 56.485 0 0 1 -33.348 2.709c11.689-2.622 24.328-3.515 31.212-4.001zm127.437 104.02v-56h16v1.754c-19.061 8.984-16.38 33.2 0 42.721v11.525zm56.48-59.681c4.285 33.538-33.876 47.019-37.843 26-.5-3.153 3.422-7.369 7.53-6.3 25.786 6.911 17.836-39.775 1.847-30.935-2.029-2.084-25.205-.716-28.014-1.084-.186-2.913.471-7.6-.467-10.672a69.187 69.187 0 0 0 36.367-8.66c11.268 8.116 18.887 19.754 20.58 31.651zm-7.9-86.263c2.1 12.529-3.338 26.691-13.558 35.7-9.664-4.321-21.54-6.706-33.6-8.167a104.105 104.105 0 0 0 26.4-44.394 55.54 55.54 0 0 0 2.457-7.416 33.889 33.889 0 0 1 18.298 24.277zm-120.58-134.056a88.1 88.1 0 0 1 79.1 49.453 55.676 55.676 0 0 0 -31.1-9.453h-96a55.67 55.67 0 0 0 -31.095 9.453 88.1 88.1 0 0 1 79.095-49.453zm-102.281 109.776a55.4 55.4 0 0 0 2.458 7.416 103.882 103.882 0 0 0 20.141 37.562 109.874 109.874 0 0 0 -16.318-2.741v-.013h-.128a81.972 81.972 0 0 0 -14.441 0h-8.287a33.835 33.835 0 0 1 16.575-42.224zm-29.719 2.224h3.557a49.667 49.667 0 0 0 -7.184 39.654c-24.501-5.669-19.773-39.164 3.627-39.654zm-34.209 56.156a38.112 38.112 0 0 0 -5.371-.156h-19.336c.606-6.323.972-14.534-.141-21.236a21.133 21.133 0 0 1 10.728-2.722c4.129 6.63 9.564 16.322 14.12 24.114zm-105.81-82.533a29.937 29.937 0 0 0 7.527-7.173c10.145 14.929 29.392 9.74 38.058 1.505 2.936 7.815 6.3 16.245 11.03 23.4-15.415-2.201-40.491-9.973-56.615-17.732zm45.982 37.044c-3.554-3.135-5.717-3-16.753-9.164 17.688 4.939 34.242 8.485 47.4 5.863.5.146 1 .286 1.511.41l.168-.694c10.014-1.688 19.641-2.584 13.36 8.967a37.023 37.023 0 0 0 -22.417 7.308c-10.392-2.03-15.807-4.347-23.269-12.69zm-27.408 138.507a31.046 31.046 0 0 0 -16.812-4.862 29.223 29.223 0 0 0 -16.559-15.3c21.134-23.435 40.437-52.333 60.631-63.816-7.216 7.883-7.963 21.623-1.658 30.679-10.006 18.834-20.034 38.534-25.602 53.299zm109.124-43.109a50.6 50.6 0 0 0 -.49 6.267 144.09 144.09 0 0 1 -69.325-24.777c-5.012-6.3-.091-15.479 7.753-15.5v-.053h37.834c17.152 2.142 28.069-6.279 42.238-11.843a57.846 57.846 0 0 0 5.349 6.408c-12.702 10.469-21.259 24.743-23.359 39.498zm15.84 2.254c1.693-11.9 9.312-23.536 20.58-31.651a68.746 68.746 0 0 0 36.368 8.66c-.692.9-.423 9.3-.467 10.672-3.293.388-25.686-1.034-28 1.081-12.392-6.467-19.062 18.178-12.084 27.056 7.587 10.792 21.044-3.033 21.35 11.126-1.518 7.882-9.553 10.106-16.432 8.661-15.689-3.766-23.115-20.173-21.315-35.605zm40.481 59.681v-11.526c17.459-10.175 17.952-34.474 0-42.719v-1.755h16v56zm32-24v-48h27.19c-37.262 22.907-35.11 74.839 0 96h-27.19zm112 0v48h-27.19c37.262-22.907 35.11-74.839 0-96h27.19z"/><path d="m40 64c32.824-1.827 30.779-47.1 0-48-32.824 1.827-30.779 47.1 0 48zm0-32c10.966.637 10.026 15.7 0 16-10.966-.637-10.026-15.7 0-16z"/><path d="m88 120c43.453-2.281 41.408-62.654 0-64-43.453 2.281-41.408 62.654 0 64zm0-48c21.99 1.248 20.314 31.475 0 32-21.99-1.248-20.314-31.475 0-32z"/><path d="m168 80c32.824-1.827 30.779-47.1 0-48-32.824 1.827-30.779 47.1 0 48zm0-32c10.966.637 10.026 15.7 0 16-10.966-.637-10.026-15.7 0-16z"/><path d="m168 144c32.824-1.827 30.779-47.1 0-48-32.824 1.827-30.779 47.1 0 48zm0-32c10.966.637 10.026 15.7 0 16-10.966-.637-10.026-15.7 0-16z"/><path d="m464 80c43.453-2.281 41.408-62.654 0-64-43.453 2.281-41.408 62.654 0 64zm0-48c21.99 1.248 20.314 31.475 0 32-21.99-1.248-20.314-31.475 0-32z"/><path d="m456 144c32.824-1.827 30.779-47.1 0-48-32.824 1.827-30.779 47.1 0 48zm0-32c10.966.637 10.026 15.7 0 16-10.966-.637-10.026-15.7 0-16z"/><path d="m232.626 410.713c-17.869.21-31.465 11.023-44.859 21.383-9.544 6.234-18.346.48-14.8-10.884 5.623-16.364 26-19.179 32.163-36.336 5.816-16.963-10.617-28.682-22.764-22.6-9.754 2.522-17.668 23.739-22.392 18.782-8.486-10.952 1.405-23.668-3.493-35.845-5.352-18.94-26.865-22.561-36.535-6.992-8.2 17.592-1.056 25.781.418 38.553 4.44 22.854 9.526 39.444 9.972 50.45-2.6 12.242-19.605-24.028-28.439-24.457-20.864-9.857-37.154 10.733-26.097 29.477 14.961 23.141 49.949 30.432 60.217 57.171a8.975 8.975 0 0 0 5.076 6.038c25.343 2.513-.7-32.114-8.821-37.427-5.541-6.425-60.257-37.814-39.8-41.6 5.854 1.187 8.088 5.52 11.591 10.368 20.845 35.55 50.046 15.784 40.594-13.061-3.076-20.682-19.715-70.4-7.731-69.3 10.583 7.031.767 23.329 4.316 34.167 2.636 12.57 13.568 22.993 27.385 17.95 10.051-3.232 13.682-17.059 21.031-19.9 3.152 11.2-33.323 21.906-33.491 47.444-1.531 18.031 14.953 30.783 31.577 25.407 12.328-3.666 18.078-12.7 28.3-18.028 21.547-10.7 36.154-2.136 8.665 8.161-18.5 7.852-45.029 26.715-56.314 45.884-3 8 8.108 14.136 13.617 7.767 6.4-9.15 17.246-19.621 29.7-28.152a98.856 98.856 0 0 1 22.748-12.172c29.873-10.094 27.533-43.501-1.834-42.248z"/><path d="m483.1 447.163c-17.525-12.287-25.042 3.878-33.662 13.808 10.649-43.744-24.41-49.075-37.8-26.575-4.406 6.09-5.195 22.377-9.739 25.841-1.465.319-5.336-5.413-7.123-7.477-11.75-16.551-33.063-9.637-33.686 10.062-1.079 15.033 28.849 49.579 37.449 36.036 6.283-11.195-11.82-15.945-16.013-24.885-3.392-4.6-7.734-11.017-3.922-14.565 10.881 10.532 14.858 19.443 27.558 16.283 18.762-4.727 13.372-36.046 25.07-38.131 10-.628-.944 21.514 3.189 29.826 3.3 11.3 17.625 13.571 26.813 4.6 4.289-3.33 6.9-10.894 10.751-13.073 4.433 2.687 2.145 8.465-1.223 12.848-6.693 8.717-13.356 12.681-16.415 22.7a8.011 8.011 0 0 0 11.815 8.122c11.538-14.756 36.9-36.552 16.938-55.42z"/><rect height="24" rx="8" width="16" x="280" y="176"/><rect height="24" rx="8" width="16" x="360" y="176"/></g></svg>